Coordinates
version=1
nRows=11
nColumns=36
inDegrees=yes

Units are S.I. units (second, meters, Newtons, ...)
If the header above contains a line with 'inDegrees', this indicates whether rotational values are in degrees (yes) or radians (no).

endheader
time	pelvis_tilt	pelvis_list	pelvis_rotation	pelvis_tx	pelvis_ty	pelvis_tz	hip_flexion_r	hip_adduction_r	hip_rotation_r	knee_angle_r	knee_angle_r_beta	ankle_angle_r	subtalar_angle_r	mtp_angle_r	hip_flexion_l	hip_adduction_l	hip_rotation_l	knee_angle_l	knee_angle_l_beta	ankle_angle_l	subtalar_angle_l	mtp_angle_l	lumbar_extension	lumbar_bending	lumbar_rotation	arm_flex_r	arm_add_r	arm_rot_r	elbow_flex_r	pro_sup_r	arm_flex_l	arm_add_l	arm_rot_l	elbow_flex_l	pro_sup_l
      2.71666670	     -0.01918660	      0.95134613	     -0.32545116	      0.17233147	      0.84161422	      0.06260684	      0.93140413	     -9.92818510	    -13.85083064	      1.80315418	      0.03147098	      4.21611136	      5.56812395	     -7.49999987	      3.10337519	    -10.52699570	     -5.30060113	      3.31593566	      0.05787400	      5.17280865	      8.00945170	     -7.49999987	      6.14761877	      0.35420841	      0.29117001	     43.47117396	      5.23131851	     62.95751547	    126.82851198	     86.75832599	     42.06073250	      6.07353991	     66.29724848	    126.16432962	     76.78779948
      2.73333330	      0.02371393	      0.92997097	     -0.35805599	      0.17281265	      0.83961625	      0.06243983	      0.89099530	     -9.92859150	    -13.81907394	      1.83411109	      0.03201128	      4.35744375	      5.56645603	     -7.49999987	      3.02368739	    -10.52450003	     -5.11290729	      3.30198877	      0.05763058	      5.13709661	      7.54722647	     -7.49999987	      6.05432331	      0.39095163	      0.23273245	     43.68156572	      5.18863174	     62.87220954	    126.73388216	     84.35947711	     42.31805094	      6.11733722	     66.28311923	    126.35615109	     75.31469195
      2.75000000	     -0.04496413	      0.92259580	     -0.42450662	      0.17254595	      0.84142770	      0.06286963	      1.00424742	     -9.91889729	    -13.72354305	      1.88830203	      0.03295709	      4.47515276	      5.65622643	     -7.49999987	      3.07314452	    -10.55129417	     -5.20300022	      3.29953919	      0.05758782	      5.10885393	      7.60735806	     -7.49999987	      6.09626314	      0.36872805	      0.21884738	     43.50484643	      5.09723317	     62.66033936	    126.85633485	     88.42553774	     42.39513062	      6.08454885	     66.28581903	    126.41713481	     77.33011509
      2.76666670	     -0.06961882	      0.89798457	     -0.57429079	      0.17220775	      0.84053282	      0.06339929	      1.11662953	     -9.88233357	    -13.74999766	      1.90382522	      0.03322802	      4.54723654	      5.82471039	     -7.49999987	      3.05048902	    -10.59785390	     -5.22160158	      3.27982538	      0.05724375	      5.10009483	      7.53658126	     -7.49999987	      6.09126126	      0.37776105	      0.28348977	     43.43933373	      5.12769308	     62.72714482	    126.78625395	     86.99201729	     42.29253055	      6.10493139	     66.27846874	    126.40658406	     76.33127855
      2.78333330	     -0.11438967	      0.91659778	     -0.67713567	      0.17211975	      0.84096458	      0.06297496	      1.22840794	     -9.88419443	    -13.68367885	      1.86113730	      0.03248297	      4.53057976	      5.85623458	     -7.49999987	      3.08672161	    -10.59511897	     -5.28647187	      3.26285351	      0.05694754	      5.10948116	      7.51635995	     -7.49999987	      6.09993900	      0.37137399	      0.44808420	     43.37764187	      5.05458211	     62.49894349	    126.51828799	     88.20816711	     42.29085527	      6.25668365	     66.42546927	    126.32313333	     76.87312103
      2.80000000	     -0.15094261	      0.94156751	     -0.75556687	      0.17187323	      0.83983006	      0.06318239	      1.33692379	     -9.91022983	    -13.72169638	      1.86085009	      0.03247796	      4.57005923	      5.90845830	     -7.49999987	      3.12285044	    -10.58209673	     -5.23015369	      3.28095125	      0.05726340	      5.10819377	      7.39621415	     -7.49999987	      6.07009971	      0.35113181	      0.27892038	     43.46703460	      5.23011365	     62.66021970	    126.37811405	     87.70871058	     42.50274115	      6.24898924	     66.50127210	    126.34838767	     76.40560952
      2.81666670	     -0.10115618	      0.97787720	     -0.87463159	      0.17085301	      0.83831719	      0.06268004	      1.38400398	     -9.96629458	    -13.63116949	      1.88226847	      0.03285178	      4.53851551	      5.83672436	     -7.49999987	      3.07313526	    -10.52184991	     -5.46041034	      3.23390467	      0.05644228	      5.18028128	      7.40004346	     -7.49999987	      5.96814932	      0.30729159	      0.18759107	     43.82691947	      5.45260233	     62.95799493	    126.30346328	     86.43373853	     42.75155861	      6.30925052	     66.64758841	    126.43074508	     75.67593620
      2.83333330	     -0.17061553	      0.98867207	     -0.85046387	      0.17190349	      0.83903309	      0.06269172	      1.45561185	    -10.00458735	    -13.81419731	      1.88040854	      0.03281932	      4.57519834	      6.10413238	     -7.49999987	      3.18492697	    -10.49109983	     -5.31211276	      3.17432745	      0.05540247	      5.06442373	      7.09459524	     -7.49999987	      6.03458613	      0.30127896	      0.17008112	     43.97972130	      5.54085251	     62.97956738	    126.06912828	     87.68749310	     42.88647758	      6.53661727	     66.60246805	    126.51817061	     76.26045104
      2.85000000	     -0.19438986	      0.99134530	     -0.88777315	      0.17178468	      0.83999718	      0.06286718	      1.47994348	    -10.01549672	    -13.73152035	      1.87480096	      0.03272145	      4.58542271	      6.12097290	     -7.49999987	      3.18328515	    -10.48949644	     -5.41102487	      3.10899774	      0.05426225	      5.07130363	      7.25389037	     -7.49999987	      6.03662985	      0.29285129	      0.21739692	     44.13055868	      5.61855088	     63.06968531	    125.87897755	     87.86641354	     43.02380118	      6.76366226	     66.74065201	    126.58010748	     76.26258267
      2.86666670	     -0.18852231	      0.95169482	     -0.93683128	      0.17161116	      0.84008495	      0.06332510	      1.48868076	     -9.95504731	    -13.76817975	      1.91290659	      0.03338652	      4.64114122	      6.20992820	     -7.49999987	      3.16676367	    -10.55057047	     -5.34292791	      3.12555437	      0.05455121	      5.09183576	      7.28080349	     -7.49999987	      5.99464177	      0.32779644	      0.26785735	     44.15985448	      5.60878722	     63.13388868	    125.72980809	     87.50563481	     43.10195546	      6.92482489	     66.87926341	    126.55775357	     75.95628123
      2.88333330	     -0.17182267	      0.93286533	     -1.04887465	      0.17226553	      0.84162843	      0.06353322	      1.46172931	     -9.91688436	    -13.82512947	      1.88797558	      0.03295139	      4.70750198	      6.45043373	     -7.49999987	      3.08945782	    -10.59226412	     -5.36481679	      3.10742828	      0.05423485	      4.97729822	      7.38539683	     -7.49999987	      5.94185332	      0.33919029	      0.38167834	     44.05884956	      5.50254270	     63.32369378	    125.67721691	     86.01267124	     42.92452445	      6.91541723	     67.07669870	    126.62290636	     75.09378774
